<?xml version="1.0" standalone="no"?><!DOCTYPE svg PUBLIC "-//W3C//DTD SVG 1.1//EN" "http://www.w3.org/Graphics/SVG/1.1/DTD/svg11.dtd"><svg t="1726897527807" class="icon" viewBox="0 0 1024 1024" version="1.1" xmlns="http://www.w3.org/2000/svg" p-id="1493" xmlns:xlink="http://www.w3.org/1999/xlink" width="16" height="16"><path d="M489.472 504.405333l-6.144-4.864L186.538667 215.04a41.386667 41.386667 0 0 1 0-60.330667 45.994667 45.994667 0 0 1 56.832-4.949333l6.144 4.949333 265.386666 254.293334 265.216-254.293334a45.994667 45.994667 0 0 1 56.832-4.949333l6.144 4.949333a41.386667 41.386667 0 0 1 5.12 54.442667l-5.12 5.973333-296.789333 284.416a45.994667 45.994667 0 0 1-50.005333 8.533334l-6.826667-3.669334z m0 398.250667l-6.144-4.949333-296.789333-284.416a41.386667 41.386667 0 0 1 0-60.330667 45.994667 45.994667 0 0 1 56.832-4.949333l6.144 4.949333 265.386666 254.293333 265.216-254.293333a45.994667 45.994667 0 0 1 56.832-4.949333l6.144 4.949333a41.386667 41.386667 0 0 1 5.12 54.442667l-5.12 5.973333-296.789333 284.330667a45.994667 45.994667 0 0 1-50.005333 8.704l-6.826667-3.754667z" fill="#000000" opacity=".6" p-id="1494"></path></svg>