<?xml version="1.0" standalone="no"?><!DOCTYPE svg PUBLIC "-//W3C//DTD SVG 1.1//EN" "http://www.w3.org/Graphics/SVG/1.1/DTD/svg11.dtd"><svg t="1726986916093" class="icon" viewBox="0 0 1024 1024" version="1.1" xmlns="http://www.w3.org/2000/svg" p-id="4285" xmlns:xlink="http://www.w3.org/1999/xlink" width="16" height="16"><path d="M28.629333 82.474667h589.696a57.258667 57.258667 0 0 1 41.813334 18.133333l348.416 372.266667a57.258667 57.258667 0 0 1 0 78.250666l-348.416 372.224a57.258667 57.258667 0 0 1-41.813334 18.176H28.714667A28.629333 28.629333 0 0 1 0 912.853333v-293.461333h562.773333l97.109334-97.28a14.336 14.336 0 0 0 0-20.224l-97.109334-97.28H0V111.104a28.629333 28.629333 0 0 1 28.629333-28.629333z" fill="#1F1F1F" p-id="4286"></path></svg>