<!DOCTYPE svg PUBLIC "-//W3C//DTD SVG 1.1//EN" "http://www.w3.org/Graphics/SVG/1.1/DTD/svg11.dtd">
<!-- Uploaded to: SVG Repo, www.svgrepo.com, Transformed by: SVG Repo Mixer Tools -->
<svg width="64px" height="64px" viewBox="0 0 400 400" fill="none" xmlns="http://www.w3.org/2000/svg">
<g id="SVGRepo_bgCarrier" stroke-width="0"/>
<g id="SVGRepo_tracerCarrier" stroke-linecap="round" stroke-linejoin="round" stroke="#CCCCCC" stroke-width="3.2"/>
<g id="SVGRepo_iconCarrier"> <path d="M147.401 313.003C39.8487 313.003 42.2988 313.003 87.1135 209.526V275.47" stroke="#000000" stroke-opacity="0.9" stroke-width="16" stroke-linecap="round" stroke-linejoin="round"/> <path d="M324.557 227.946C304.429 227.192 195.421 226.265 187.533 234.155C176.154 245.537 148.004 324.113 159.274 339.143C235.863 340.602 293.78 342.161 305.108 337.629C310.954 335.29 315.624 328.565 318.228 322.487C320.29 317.673 341.944 244.299 341.944 242.231" stroke="#000000" stroke-opacity="0.9" stroke-width="16" stroke-linecap="round" stroke-linejoin="round"/> <path d="M155.578 338.466C139.386 332.347 122.408 326.968 106.819 318.962" stroke="#000000" stroke-opacity="0.9" stroke-width="16" stroke-linecap="round" stroke-linejoin="round"/> <path d="M109.285 124.88C83.9951 207.964 197.142 243.153 227.106 159.615C243.349 114.329 188.699 47.6707 132.681 97.7025" stroke="#000000" stroke-opacity="0.9" stroke-width="16" stroke-linecap="round" stroke-linejoin="round"/> <path d="M187.702 157.793C188.738 154.993 189.477 153.351 190.056 150.635" stroke="#000000" stroke-opacity="0.9" stroke-width="16" stroke-linecap="round" stroke-linejoin="round"/> <path d="M164.323 157.307C165.41 155.075 165.59 153.074 166.015 150.55" stroke="#000000" stroke-opacity="0.9" stroke-width="16" stroke-linecap="round" stroke-linejoin="round"/> </g>
</svg>