<?xml version="1.0" encoding="utf-8"?>

<!DOCTYPE svg PUBLIC "-//W3C//DTD SVG 1.1//EN" "http://www.w3.org/Graphics/SVG/1.1/DTD/svg11.dtd">
<!-- Uploaded to: SVG Repo, www.svgrepo.com, Generator: SVG Repo Mixer Tools -->
<svg height="800px" width="800px" version="1.1" id="_x32_" xmlns="http://www.w3.org/2000/svg" xmlns:xlink="http://www.w3.org/1999/xlink" 
	 viewBox="0 0 512 512"  xml:space="preserve">
<style type="text/css">
	.st0{fill:#000000;}
</style>
<g>
	<path class="st0" d="M218.693,162.261l-12.864,69.31c0,0,107.123,0,109.091,2.105C307.594,151.751,218.693,162.261,218.693,162.261
		z"/>
	<path class="st0" d="M201.756,294.589l-15.166-25.206l-39.157,1.747l18.728-109.091h-10.494l1.078,3.269
		c-8.626,3.252-56.924,14.79-58.32,65.202l39.209-5.598l-8.628,71.424L201.756,294.589z"/>
	<polygon class="st0" points="205.761,325.632 138.549,325.632 129.33,338.239 219.652,338.239 	"/>
	<path class="st0" d="M493.338,240.317c-0.684-7.317-24.743-49.119-30.906-51.216c-6.162-2.106,0.471-39.91-11.854-44.112
		c-12.342-4.202,0-38.438-32.275-66.015c-20.661-17.648-19.369-45.31-48.494-49.521c-29.143-4.194-28.322-16.801-53.527-16.801
		c-21.115,0-61.804-18.898-74.95-10.502c-13.138,8.405-59.356,8.405-70.396,16.81c-11.041,8.396-40.998,16.801-67.975,44.103
		C42.056,124.739,50.632,172.506,37.708,195.4c-4.732,8.414-11.512,48.323-21.269,69.318c-9.756,21.012,14.841,63.018,14.285,71.424
		c-0.539,8.405,7.806,42.007,3.937,69.309c-3.851,27.32,24.188,48.315,48.452,63.011c14.635,33.627,46.824,23.108,46.824,23.108
		l-6.239,18.333l18.77,2.096l9.954-28.141l30.093-24.658h60.323l71.073-92.418l17.965-50.42l-15.663-9.637
		c0,0-10.852,37.804-15.466,44.121c-4.596,6.29-64.363,86.118-64.363,86.118l-109.082-2.096c0,0-33.354-69.327-38.832-81.934
		c-5.495-12.581-11.255-86.118-11.255-86.118l6.18-35.203c0,0,7.575-15.209,0.257-32.01
		C95.249,117.678,158.636,73.66,227.038,60.967c0,0,193.482,32.292,120.74,407.511c0,0-4.536,37.814,14.096,42.007
		c18.633,4.194,35.134-1.729,47.501-4.194c21.004-4.203,28.681,6.402,37.753-4.1c9.082-10.494,39.688-96.364,43.419-116.238
		c4.202-22.407,6.514-49.812,7.19-60.322C498.413,315.13,495.983,268.425,493.338,240.317z"/>
	<polygon class="st0" points="184.612,371.849 193.017,363.445 159.406,363.445 163.617,371.849 	"/>
</g>
</svg>