<svg width="27" height="12" viewBox="0 0 27 12" fill="none" xmlns="http://www.w3.org/2000/svg">
<mask id="path-1-inside-1_13_5" fill="white">
<path stroke="white" stroke-width="0.3" d="M0.568359 1.29688H0.990234V11H0.568359V1.29688ZM3.09961 1.29688H3.52148V8.89062H6.89648V9.3125H3.52148V9.73438H6.89648V10.1562H3.52148V10.5781H6.89648V11H3.09961V1.29688ZM2.25586 1.29688H2.67773V11H2.25586V1.29688ZM1.41211 1.29688H1.83398V11H1.41211V1.29688ZM9.94336 11H9.52148V1.29688H9.94336V11ZM9.09961 11H8.67773V1.29688H9.09961V11ZM8.25586 11H7.83398V1.29688H8.25586V11ZM10.7871 8.89062H15.2754V9.3125H10.7871V9.73438H15.2754V10.1562H10.7871V10.5781H15.2754V11H10.3652V1.29688H15.2754V1.71875H10.7871V2.14062H15.2754V2.5625H10.7871V2.98438H15.2754V3.40625H10.7871V5.09375H13.0898V5.51562H10.7871V5.9375H13.0898V6.35938H10.7871V6.78125H13.0898V7.20312H10.7871V8.89062ZM19.7344 4.50781C19.2812 4.96094 19.0547 5.50781 19.0547 6.14844C19.0547 6.78906 19.2812 7.33594 19.7344 7.78906C20.1875 8.24219 20.7344 8.46875 21.375 8.46875C22.0156 8.46875 22.5625 8.24219 23.0156 7.78906C23.4688 7.33594 23.6953 6.78906 23.6953 6.14844C23.6953 5.50781 23.4688 4.96094 23.0156 4.50781C22.5625 4.05469 22.0156 3.82812 21.375 3.82812C20.7344 3.82812 20.1875 4.05469 19.7344 4.50781ZM18.8496 7.21484C18.7051 6.875 18.6328 6.51953 18.6328 6.14844C18.6328 5.77734 18.7051 5.42383 18.8496 5.08789C18.9941 4.74805 19.1895 4.45508 19.4355 4.20898C19.6816 3.96289 19.9727 3.76758 20.3086 3.62305C20.6484 3.47852 21.0039 3.40625 21.375 3.40625C21.7461 3.40625 22.0996 3.47852 22.4355 3.62305C22.7754 3.76758 23.0684 3.96289 23.3145 4.20898C23.5605 4.45508 23.7559 4.74805 23.9004 5.08789C24.0449 5.42383 24.1172 5.77734 24.1172 6.14844C24.1172 6.51953 24.0449 6.875 23.9004 7.21484C23.7559 7.55078 23.5605 7.8418 23.3145 8.08789C23.0684 8.33398 22.7754 8.5293 22.4355 8.67383C22.0996 8.81836 21.7461 8.89062 21.375 8.89062C21.0039 8.89062 20.6484 8.81836 20.3086 8.67383C19.9727 8.5293 19.6816 8.33398 19.4355 8.08789C19.1895 7.8418 18.9941 7.55078 18.8496 7.21484ZM18.6328 4.56055C18.3516 5.04492 18.2109 5.57422 18.2109 6.14844C18.2109 6.72266 18.3516 7.25195 18.6328 7.73633C18.918 8.2207 19.3027 8.60547 19.7871 8.89062C20.2715 9.17188 20.8008 9.3125 21.375 9.3125C21.9492 9.3125 22.4785 9.17188 22.9629 8.89062C23.4473 8.60547 23.8301 8.2207 24.1113 7.73633C24.3965 7.25195 24.5391 6.72266 24.5391 6.14844C24.5391 5.57422 24.3965 5.04492 24.1113 4.56055C23.8301 4.07617 23.4473 3.69336 22.9629 3.41211C22.4785 3.12695 21.9492 2.98438 21.375 2.98438C20.8008 2.98438 20.2715 3.12695 19.7871 3.41211C19.3027 3.69336 18.918 4.07617 18.6328 4.56055ZM18.2695 7.94727C17.9492 7.39648 17.7891 6.79688 17.7891 6.14844C17.7891 5.5 17.9492 4.90039 18.2695 4.34961C18.5898 3.79883 19.0254 3.36328 19.5762 3.04297C20.127 2.72266 20.7266 2.5625 21.375 2.5625C22.0234 2.5625 22.623 2.72266 23.1738 3.04297C23.7246 3.36328 24.1602 3.79883 24.4805 4.34961C24.8008 4.90039 24.9609 5.5 24.9609 6.14844C24.9609 6.79688 24.8008 7.39648 24.4805 7.94727C24.1602 8.49805 23.7246 8.93359 23.1738 9.25391C22.623 9.57422 22.0234 9.73438 21.375 9.73438C20.7266 9.73438 20.127 9.57422 19.5762 9.25391C19.0254 8.93359 18.5898 8.49805 18.2695 7.94727ZM17.6836 4.58984C17.4727 5.08594 17.3672 5.60547 17.3672 6.14844C17.3672 6.69141 17.4727 7.21094 17.6836 7.70703C17.8945 8.20312 18.1777 8.63086 18.5332 8.99023C18.8926 9.3457 19.3203 9.62891 19.8164 9.83984C20.3125 10.0508 20.832 10.1562 21.375 10.1562C21.918 10.1562 22.4375 10.0508 22.9336 9.83984C23.4297 9.62891 23.8555 9.3457 24.2109 8.99023C24.5703 8.63086 24.8555 8.20312 25.0664 7.70703C25.2773 7.21094 25.3828 6.69141 25.3828 6.14844C25.3828 5.60547 25.2773 5.08594 25.0664 4.58984C24.8555 4.09375 24.5703 3.66797 24.2109 3.3125C23.8555 2.95313 23.4297 2.66797 22.9336 2.45703C22.4375 2.24609 21.918 2.14062 21.375 2.14062C20.832 2.14062 20.3125 2.24609 19.8164 2.45703C19.3203 2.66797 18.8926 2.95313 18.5332 3.3125C18.1777 3.66797 17.8945 4.09375 17.6836 4.58984ZM17.5371 8.36914C17.1426 7.68945 16.9453 6.94922 16.9453 6.14844C16.9453 5.34766 17.1426 4.60742 17.5371 3.92773C17.9355 3.24805 18.4746 2.71094 19.1543 2.31641C19.834 1.91797 20.5742 1.71875 21.375 1.71875C22.1758 1.71875 22.916 1.91797 23.5957 2.31641C24.2754 2.71094 24.8125 3.24805 25.207 3.92773C25.6055 4.60742 25.8047 5.34766 25.8047 6.14844C25.8047 6.94922 25.6055 7.68945 25.207 8.36914C24.8125 9.04883 24.2754 9.58789 23.5957 9.98633C22.916 10.3809 22.1758 10.5781 21.375 10.5781C20.5742 10.5781 19.834 10.3809 19.1543 9.98633C18.4746 9.58789 17.9355 9.04883 17.5371 8.36914ZM16.9043 4.26758C16.6504 4.86523 16.5234 5.49219 16.5234 6.14844C16.5234 6.80469 16.6504 7.43359 16.9043 8.03516C17.1621 8.63281 17.5078 9.14844 17.9414 9.58203C18.375 10.0156 18.8906 10.3613 19.4883 10.6191C20.0898 10.873 20.7188 11 21.375 11C22.0312 11 22.6582 10.873 23.2559 10.6191C23.8574 10.3613 24.375 10.0156 24.8086 9.58203C25.2422 9.14844 25.5859 8.63281 25.8398 8.03516C26.0977 7.43359 26.2266 6.80469 26.2266 6.14844C26.2266 5.49219 26.0977 4.86523 25.8398 4.26758C25.5859 3.66602 25.2422 3.14844 24.8086 2.71484C24.375 2.28125 23.8574 1.9375 23.2559 1.68359C22.6582 1.42578 22.0312 1.29688 21.375 1.29688C20.7188 1.29688 20.0898 1.42578 19.4883 1.68359C18.8906 1.9375 18.375 2.28125 17.9414 2.71484C17.5078 3.14844 17.1621 3.66602 16.9043 4.26758ZM16.5176 8.19922C16.2402 7.54688 16.1016 6.86328 16.1016 6.14844C16.1016 5.43359 16.2402 4.75195 16.5176 4.10352C16.7988 3.45117 17.1738 2.89062 17.6426 2.42188C18.1152 1.94922 18.6758 1.57422 19.3242 1.29688C19.9766 1.01562 20.6602 0.875 21.375 0.875C22.0898 0.875 22.7715 1.01562 23.4199 1.29688C24.0723 1.57422 24.6328 1.94922 25.1016 2.42188C25.5742 2.89062 25.9492 3.45117 26.2266 4.10352C26.5078 4.75195 26.6484 5.43359 26.6484 6.14844C26.6484 6.86328 26.5078 7.54688 26.2266 8.19922C25.9492 8.84766 25.5742 9.4082 25.1016 9.88086C24.6328 10.3496 24.0723 10.7227 23.4199 11C22.7715 11.2812 22.0898 11.4219 21.375 11.4219C20.6602 11.4219 19.9766 11.2812 19.3242 11C18.6758 10.7227 18.1152 10.3496 17.6426 9.88086C17.1738 9.4082 16.7988 8.84766 16.5176 8.19922Z"/>
</mask>
<path d="M0.568359 1.29688V0.296875H-0.431641V1.29688H0.568359ZM0.990234 1.29688H1.99023V0.296875H0.990234V1.29688ZM0.990234 11V12H1.99023V11H0.990234ZM0.568359 11H-0.431641V12H0.568359V11ZM3.09961 1.29688V0.296875H2.09961V1.29688H3.09961ZM3.52148 1.29688H4.52148V0.296875H3.52148V1.29688ZM3.52148 8.89062H2.52148V9.89062H3.52148V8.89062ZM6.89648 8.89062H7.89648V7.89062H6.89648V8.89062ZM6.89648 9.3125V10.3125H7.89648V9.3125H6.89648ZM3.52148 9.3125V8.3125H2.52148V9.3125H3.52148ZM3.52148 9.73438H2.52148V10.7344H3.52148V9.73438ZM6.89648 9.73438H7.89648V8.73438H6.89648V9.73438ZM6.89648 10.1562V11.1562H7.89648V10.1562H6.89648ZM3.52148 10.1562V9.15625H2.52148V10.1562H3.52148ZM3.52148 10.5781H2.52148V11.5781H3.52148V10.5781ZM6.89648 10.5781H7.89648V9.57812H6.89648V10.5781ZM6.89648 11V12H7.89648V11H6.89648ZM3.09961 11H2.09961V12H3.09961V11ZM2.25586 1.29688V0.296875H1.25586V1.29688H2.25586ZM2.67773 1.29688H3.67773V0.296875H2.67773V1.29688ZM2.67773 11V12H3.67773V11H2.67773ZM2.25586 11H1.25586V12H2.25586V11ZM1.41211 1.29688V0.296875H0.412109V1.29688H1.41211ZM1.83398 1.29688H2.83398V0.296875H1.83398V1.29688ZM1.83398 11V12H2.83398V11H1.83398ZM1.41211 11H0.412109V12H1.41211V11ZM0.568359 2.29688H0.990234V0.296875H0.568359V2.29688ZM-0.00976562 1.29688V11H1.99023V1.29688H-0.00976562ZM0.990234 10H0.568359V12H0.990234V10ZM1.56836 11V1.29688H-0.431641V11H1.56836ZM3.09961 2.29688H3.52148V0.296875H3.09961V2.29688ZM2.52148 1.29688V8.89062H4.52148V1.29688H2.52148ZM3.52148 9.89062H6.89648V7.89062H3.52148V9.89062ZM5.89648 8.89062V9.3125H7.89648V8.89062H5.89648ZM6.89648 8.3125H3.52148V10.3125H6.89648V8.3125ZM2.52148 9.3125V9.73438H4.52148V9.3125H2.52148ZM3.52148 10.7344H6.89648V8.73438H3.52148V10.7344ZM5.89648 9.73438V10.1562H7.89648V9.73438H5.89648ZM6.89648 9.15625H3.52148V11.1562H6.89648V9.15625ZM2.52148 10.1562V10.5781H4.52148V10.1562H2.52148ZM3.52148 11.5781H6.89648V9.57812H3.52148V11.5781ZM5.89648 10.5781V11H7.89648V10.5781H5.89648ZM6.89648 10H3.09961V12H6.89648V10ZM4.09961 11V1.29688H2.09961V11H4.09961ZM2.25586 2.29688H2.67773V0.296875H2.25586V2.29688ZM1.67773 1.29688V11H3.67773V1.29688H1.67773ZM2.67773 10H2.25586V12H2.67773V10ZM3.25586 11V1.29688H1.25586V11H3.25586ZM1.41211 2.29688H1.83398V0.296875H1.41211V2.29688ZM0.833984 1.29688V11H2.83398V1.29688H0.833984ZM1.83398 10H1.41211V12H1.83398V10ZM2.41211 11V1.29688H0.412109V11H2.41211ZM9.94336 11V12H10.9434V11H9.94336ZM9.52148 11H8.52148V12H9.52148V11ZM9.52148 1.29688V0.296875H8.52148V1.29688H9.52148ZM9.94336 1.29688H10.9434V0.296875H9.94336V1.29688ZM9.09961 11V12H10.0996V11H9.09961ZM8.67773 11H7.67773V12H8.67773V11ZM8.67773 1.29688V0.296875H7.67773V1.29688H8.67773ZM9.09961 1.29688H10.0996V0.296875H9.09961V1.29688ZM8.25586 11V12H9.25586V11H8.25586ZM7.83398 11H6.83398V12H7.83398V11ZM7.83398 1.29688V0.296875H6.83398V1.29688H7.83398ZM8.25586 1.29688H9.25586V0.296875H8.25586V1.29688ZM10.7871 8.89062H9.78711V9.89062H10.7871V8.89062ZM15.2754 8.89062H16.2754V7.89062H15.2754V8.89062ZM15.2754 9.3125V10.3125H16.2754V9.3125H15.2754ZM10.7871 9.3125V8.3125H9.78711V9.3125H10.7871ZM10.7871 9.73438H9.78711V10.7344H10.7871V9.73438ZM15.2754 9.73438H16.2754V8.73438H15.2754V9.73438ZM15.2754 10.1562V11.1562H16.2754V10.1562H15.2754ZM10.7871 10.1562V9.15625H9.78711V10.1562H10.7871ZM10.7871 10.5781H9.78711V11.5781H10.7871V10.5781ZM15.2754 10.5781H16.2754V9.57812H15.2754V10.5781ZM15.2754 11V12H16.2754V11H15.2754ZM10.3652 11H9.36523V12H10.3652V11ZM10.3652 1.29688V0.296875H9.36523V1.29688H10.3652ZM15.2754 1.29688H16.2754V0.296875H15.2754V1.29688ZM15.2754 1.71875V2.71875H16.2754V1.71875H15.2754ZM10.7871 1.71875V0.71875H9.78711V1.71875H10.7871ZM10.7871 2.14062H9.78711V3.14062H10.7871V2.14062ZM15.2754 2.14062H16.2754V1.14062H15.2754V2.14062ZM15.2754 2.5625V3.5625H16.2754V2.5625H15.2754ZM10.7871 2.5625V1.5625H9.78711V2.5625H10.7871ZM10.7871 2.98438H9.78711V3.98438H10.7871V2.98438ZM15.2754 2.98438H16.2754V1.98438H15.2754V2.98438ZM15.2754 3.40625V4.40625H16.2754V3.40625H15.2754ZM10.7871 3.40625V2.40625H9.78711V3.40625H10.7871ZM10.7871 5.09375H9.78711V6.09375H10.7871V5.09375ZM13.0898 5.09375H14.0898V4.09375H13.0898V5.09375ZM13.0898 5.51562V6.51562H14.0898V5.51562H13.0898ZM10.7871 5.51562V4.51562H9.78711V5.51562H10.7871ZM10.7871 5.9375H9.78711V6.9375H10.7871V5.9375ZM13.0898 5.9375H14.0898V4.9375H13.0898V5.9375ZM13.0898 6.35938V7.35938H14.0898V6.35938H13.0898ZM10.7871 6.35938V5.35938H9.78711V6.35938H10.7871ZM10.7871 6.78125H9.78711V7.78125H10.7871V6.78125ZM13.0898 6.78125H14.0898V5.78125H13.0898V6.78125ZM13.0898 7.20312V8.20312H14.0898V7.20312H13.0898ZM10.7871 7.20312V6.20312H9.78711V7.20312H10.7871ZM9.94336 10H9.52148V12H9.94336V10ZM10.5215 11V1.29688H8.52148V11H10.5215ZM9.52148 2.29688H9.94336V0.296875H9.52148V2.29688ZM8.94336 1.29688V11H10.9434V1.29688H8.94336ZM9.09961 10H8.67773V12H9.09961V10ZM9.67773 11V1.29688H7.67773V11H9.67773ZM8.67773 2.29688H9.09961V0.296875H8.67773V2.29688ZM8.09961 1.29688V11H10.0996V1.29688H8.09961ZM8.25586 10H7.83398V12H8.25586V10ZM8.83398 11V1.29688H6.83398V11H8.83398ZM7.83398 2.29688H8.25586V0.296875H7.83398V2.29688ZM7.25586 1.29688V11H9.25586V1.29688H7.25586ZM10.7871 9.89062H15.2754V7.89062H10.7871V9.89062ZM14.2754 8.89062V9.3125H16.2754V8.89062H14.2754ZM15.2754 8.3125H10.7871V10.3125H15.2754V8.3125ZM9.78711 9.3125V9.73438H11.7871V9.3125H9.78711ZM10.7871 10.7344H15.2754V8.73438H10.7871V10.7344ZM14.2754 9.73438V10.1562H16.2754V9.73438H14.2754ZM15.2754 9.15625H10.7871V11.1562H15.2754V9.15625ZM9.78711 10.1562V10.5781H11.7871V10.1562H9.78711ZM10.7871 11.5781H15.2754V9.57812H10.7871V11.5781ZM14.2754 10.5781V11H16.2754V10.5781H14.2754ZM15.2754 10H10.3652V12H15.2754V10ZM11.3652 11V1.29688H9.36523V11H11.3652ZM10.3652 2.29688H15.2754V0.296875H10.3652V2.29688ZM14.2754 1.29688V1.71875H16.2754V1.29688H14.2754ZM15.2754 0.71875H10.7871V2.71875H15.2754V0.71875ZM9.78711 1.71875V2.14062H11.7871V1.71875H9.78711ZM10.7871 3.14062H15.2754V1.14062H10.7871V3.14062ZM14.2754 2.14062V2.5625H16.2754V2.14062H14.2754ZM15.2754 1.5625H10.7871V3.5625H15.2754V1.5625ZM9.78711 2.5625V2.98438H11.7871V2.5625H9.78711ZM10.7871 3.98438H15.2754V1.98438H10.7871V3.98438ZM14.2754 2.98438V3.40625H16.2754V2.98438H14.2754ZM15.2754 2.40625H10.7871V4.40625H15.2754V2.40625ZM9.78711 3.40625V5.09375H11.7871V3.40625H9.78711ZM10.7871 6.09375H13.0898V4.09375H10.7871V6.09375ZM12.0898 5.09375V5.51562H14.0898V5.09375H12.0898ZM13.0898 4.51562H10.7871V6.51562H13.0898V4.51562ZM9.78711 5.51562V5.9375H11.7871V5.51562H9.78711ZM10.7871 6.9375H13.0898V4.9375H10.7871V6.9375ZM12.0898 5.9375V6.35938H14.0898V5.9375H12.0898ZM13.0898 5.35938H10.7871V7.35938H13.0898V5.35938ZM9.78711 6.35938V6.78125H11.7871V6.35938H9.78711ZM10.7871 7.78125H13.0898V5.78125H10.7871V7.78125ZM12.0898 6.78125V7.20312H14.0898V6.78125H12.0898ZM13.0898 6.20312H10.7871V8.20312H13.0898V6.20312ZM9.78711 7.20312V8.89062H11.7871V7.20312H9.78711ZM18.8496 7.21484L17.9294 7.60621L17.931 7.61005L18.8496 7.21484ZM18.8496 5.08789L19.7682 5.4831L19.7698 5.47926L18.8496 5.08789ZM20.3086 3.62305L19.9172 2.7028L19.9134 2.70446L20.3086 3.62305ZM22.4355 3.62305L22.0403 4.54165L22.0442 4.54328L22.4355 3.62305ZM23.9004 5.08789L22.9801 5.47926L22.9818 5.4831L23.9004 5.08789ZM23.9004 7.21484L24.819 7.61006L24.8206 7.60621L23.9004 7.21484ZM22.4355 8.67383L22.0442 7.75358L22.0403 7.75524L22.4355 8.67383ZM20.3086 8.67383L19.9134 9.59243L19.9172 9.59406L20.3086 8.67383ZM18.6328 4.56055L17.771 4.05321L17.768 4.05841L18.6328 4.56055ZM18.6328 7.73633L17.768 8.23847L17.7711 8.24365L18.6328 7.73633ZM19.7871 8.89062L19.2798 9.7524L19.285 9.75541L19.7871 8.89062ZM22.9629 8.89062L23.465 9.75543L23.4702 9.75238L22.9629 8.89062ZM24.1113 7.73633L23.2496 7.229L23.2465 7.23419L24.1113 7.73633ZM24.1113 4.56055L23.2465 5.06269L23.2496 5.06787L24.1113 4.56055ZM22.9629 3.41211L22.4556 4.27388L22.4608 4.2769L22.9629 3.41211ZM19.7871 3.41211L20.2893 4.27691L20.2944 4.27386L19.7871 3.41211ZM18.5332 8.99023L17.8222 9.69351L17.83 9.70119L18.5332 8.99023ZM24.2109 3.3125L23.4999 4.01577L23.5077 4.02346L24.2109 3.3125ZM17.5371 8.36914L16.6722 8.87116L16.6744 8.87486L17.5371 8.36914ZM17.5371 3.92773L16.6744 3.42201L16.6723 3.42572L17.5371 3.92773ZM19.1543 2.31641L19.6563 3.18127L19.66 3.1791L19.1543 2.31641ZM23.5957 2.31641L23.09 3.17911L23.0937 3.18126L23.5957 2.31641ZM25.207 3.92773L24.3422 4.42975L24.3443 4.43345L25.207 3.92773ZM25.207 8.36914L24.3443 7.86342L24.3422 7.86713L25.207 8.36914ZM23.5957 9.98633L24.0977 10.8512L24.1014 10.849L23.5957 9.98633ZM19.1543 9.98633L18.6486 10.849L18.6523 10.8512L19.1543 9.98633ZM16.9043 4.26758L15.9851 3.87366L15.9839 3.87656L16.9043 4.26758ZM16.9043 8.03516L15.983 8.42403L15.9861 8.43125L16.9043 8.03516ZM19.4883 10.6191L19.0922 11.5374L19.0994 11.5404L19.4883 10.6191ZM23.2559 10.6191L23.6469 11.5395L23.6498 11.5383L23.2559 10.6191ZM25.8398 8.03516L24.9207 7.64123L24.9195 7.64414L25.8398 8.03516ZM25.8398 4.26758L24.9185 4.65645L24.9216 4.66367L25.8398 4.26758ZM23.2559 1.68359L22.8598 2.60183L22.867 2.60489L23.2559 1.68359ZM19.4883 1.68359L19.8793 2.60398L19.8822 2.60274L19.4883 1.68359ZM16.5176 8.19922L15.5973 8.59049L15.6002 8.59714L16.5176 8.19922ZM16.5176 4.10352L15.5993 3.7076L15.5981 3.71026L16.5176 4.10352ZM19.3242 1.29688L19.7175 2.21631L19.7201 2.21516L19.3242 1.29688ZM23.4199 1.29688L23.022 2.21432L23.0287 2.21716L23.4199 1.29688ZM25.1016 2.42188L24.3915 3.12607L24.3974 3.13191L25.1016 2.42188ZM26.2266 4.10352L25.3063 4.49478L25.3091 4.50143L26.2266 4.10352ZM26.2266 8.19922L25.3083 7.80331L25.3071 7.80597L26.2266 8.19922ZM23.4199 11L23.0287 10.0797L23.022 10.0826L23.4199 11ZM19.3242 11L19.7201 10.0817L19.7175 10.0806L19.3242 11ZM17.6426 9.88086L16.9325 10.5851L16.9384 10.5909L17.6426 9.88086ZM19.0273 3.80071C18.3867 4.4413 18.0547 5.24251 18.0547 6.14844H20.0547C20.0547 5.77312 20.1758 5.48057 20.4415 5.21492L19.0273 3.80071ZM18.0547 6.14844C18.0547 7.05437 18.3867 7.85557 19.0273 8.49617L20.4415 7.08196C20.1758 6.8163 20.0547 6.52376 20.0547 6.14844H18.0547ZM19.0273 8.49617C19.6679 9.13677 20.4691 9.46875 21.375 9.46875V7.46875C20.9997 7.46875 20.7071 7.34761 20.4415 7.08196L19.0273 8.49617ZM21.375 9.46875C22.2809 9.46875 23.0821 9.13677 23.7227 8.49617L22.3085 7.08196C22.0429 7.34761 21.7503 7.46875 21.375 7.46875V9.46875ZM23.7227 8.49617C24.3633 7.85557 24.6953 7.05437 24.6953 6.14844H22.6953C22.6953 6.52376 22.5742 6.8163 22.3085 7.08196L23.7227 8.49617ZM24.6953 6.14844C24.6953 5.24251 24.3633 4.4413 23.7227 3.80071L22.3085 5.21492C22.5742 5.48057 22.6953 5.77312 22.6953 6.14844H24.6953ZM23.7227 3.80071C23.0821 3.16011 22.2809 2.82812 21.375 2.82812V4.82812C21.7503 4.82812 22.0429 4.94927 22.3085 5.21492L23.7227 3.80071ZM21.375 2.82812C20.4691 2.82812 19.6679 3.16011 19.0273 3.80071L20.4415 5.21492C20.7071 4.94927 20.9997 4.82812 21.375 4.82812V2.82812ZM19.7698 6.82348C19.6782 6.60802 19.6328 6.38571 19.6328 6.14844H17.6328C17.6328 6.65335 17.7319 7.14198 17.9294 7.60621L19.7698 6.82348ZM19.6328 6.14844C19.6328 5.91119 19.6782 5.69232 19.7682 5.4831L17.931 4.69268C17.732 5.15533 17.6328 5.6435 17.6328 6.14844H19.6328ZM19.7698 5.47926C19.8673 5.25005 19.9926 5.06612 20.1427 4.91609L18.7284 3.50188C18.3863 3.84403 18.121 4.24605 17.9294 4.69653L19.7698 5.47926ZM20.1427 4.91609C20.2946 4.76413 20.4783 4.63866 20.7038 4.54164L19.9134 2.70446C19.467 2.8965 19.0687 3.16165 18.7284 3.50188L20.1427 4.91609ZM20.7 4.54328C20.9154 4.45165 21.1377 4.40625 21.375 4.40625V2.40625C20.8701 2.40625 20.3815 2.50538 19.9172 2.70281L20.7 4.54328ZM21.375 4.40625C21.6123 4.40625 21.8311 4.45162 22.0403 4.54164L22.8308 2.70446C22.3681 2.50541 21.8799 2.40625 21.375 2.40625V4.40625ZM22.0442 4.54328C22.2734 4.64076 22.4573 4.76606 22.6073 4.91609L24.0216 3.50188C23.6794 3.15972 23.2774 2.89439 22.8269 2.70281L22.0442 4.54328ZM22.6073 4.91609C22.7574 5.06612 22.8827 5.25005 22.9802 5.47926L24.8206 4.69653C24.629 4.24605 24.3637 3.84403 24.0216 3.50188L22.6073 4.91609ZM22.9818 5.4831C23.0718 5.69232 23.1172 5.91119 23.1172 6.14844H25.1172C25.1172 5.6435 25.018 5.15533 24.819 4.69268L22.9818 5.4831ZM23.1172 6.14844C23.1172 6.38571 23.0718 6.60802 22.9802 6.82348L24.8206 7.60621C25.0181 7.14198 25.1172 6.65335 25.1172 6.14844H23.1172ZM22.9818 6.81964C22.8848 7.04514 22.7593 7.22882 22.6073 7.38078L24.0216 8.795C24.3618 8.45477 24.6269 8.05642 24.819 7.61005L22.9818 6.81964ZM22.6073 7.38078C22.4573 7.53082 22.2734 7.65611 22.0442 7.75359L22.8269 9.59406C23.2774 9.40248 23.6794 9.13715 24.0216 8.795L22.6073 7.38078ZM22.0403 7.75524C21.8311 7.84525 21.6123 7.89062 21.375 7.89062V9.89062C21.8799 9.89062 22.3681 9.79147 22.8308 9.59242L22.0403 7.75524ZM21.375 7.89062C21.1377 7.89062 20.9154 7.84523 20.7 7.75359L19.9172 9.59406C20.3815 9.79149 20.8701 9.89062 21.375 9.89062V7.89062ZM20.7038 7.75524C20.4783 7.65822 20.2946 7.53275 20.1427 7.38078L18.7284 8.795C19.0687 9.13522 19.467 9.40038 19.9134 9.59242L20.7038 7.75524ZM20.1427 7.38078C19.9907 7.22882 19.8652 7.04514 19.7682 6.81964L17.931 7.61005C18.1231 8.05642 18.3882 8.45477 18.7284 8.795L20.1427 7.38078ZM17.768 4.05841C17.3959 4.69929 17.2109 5.4025 17.2109 6.14844H19.2109C19.2109 5.74594 19.3072 5.39056 19.4976 5.06268L17.768 4.05841ZM17.2109 6.14844C17.2109 6.89438 17.3959 7.59759 17.768 8.23846L19.4976 7.23419C19.3072 6.90632 19.2109 6.55094 19.2109 6.14844H17.2109ZM17.7711 8.24365C18.1424 8.87434 18.6491 9.38109 19.2798 9.75238L20.2944 8.02887C19.9564 7.82985 19.6936 7.56706 19.4946 7.229L17.7711 8.24365ZM19.285 9.75541C19.9258 10.1275 20.6291 10.3125 21.375 10.3125V8.3125C20.9725 8.3125 20.6171 8.21621 20.2892 8.02584L19.285 9.75541ZM21.375 10.3125C22.1209 10.3125 22.8242 10.1275 23.465 9.75541L22.4608 8.02584C22.1329 8.21621 21.7775 8.3125 21.375 8.3125V10.3125ZM23.4702 9.75238C24.1021 9.38037 24.6083 8.87198 24.9761 8.23846L23.2465 7.23419C23.0519 7.56943 22.7924 7.83056 22.4556 8.02887L23.4702 9.75238ZM24.9731 8.24365C25.3508 7.60208 25.5391 6.89702 25.5391 6.14844H23.5391C23.5391 6.54829 23.4422 6.90183 23.2496 7.229L24.9731 8.24365ZM25.5391 6.14844C25.5391 5.39985 25.3508 4.69479 24.9731 4.05322L23.2496 5.06787C23.4422 5.39505 23.5391 5.74859 23.5391 6.14844H25.5391ZM24.9761 4.05841C24.6076 3.42368 24.0998 2.91587 23.465 2.54732L22.4608 4.2769C22.7948 4.47085 23.0526 4.72866 23.2465 5.06268L24.9761 4.05841ZM23.4702 2.55035C22.8286 2.17265 22.1236 1.98438 21.375 1.98438V3.98438C21.7749 3.98438 22.1284 4.08125 22.4556 4.27386L23.4702 2.55035ZM21.375 1.98438C20.6264 1.98438 19.9214 2.17265 19.2798 2.55035L20.2944 4.27386C20.6216 4.08125 20.9751 3.98438 21.375 3.98438V1.98438ZM19.285 2.54732C18.6515 2.91517 18.1431 3.42132 17.7711 4.05322L19.4946 5.06787C19.6929 4.73102 19.954 4.47155 20.2892 4.2769L19.285 2.54732ZM19.134 7.44454C18.9041 7.04924 18.7891 6.62355 18.7891 6.14844H16.7891C16.7891 6.9702 16.9944 7.74373 17.4051 8.44999L19.134 7.44454ZM18.7891 6.14844C18.7891 5.67332 18.9041 5.24764 19.134 4.85234L17.4051 3.84688C16.9944 4.55314 16.7891 5.32668 16.7891 6.14844H18.7891ZM19.134 4.85234C19.3671 4.45145 19.678 4.14055 20.0789 3.90741L19.0734 2.17852C18.3728 2.58601 17.8126 3.14621 17.4051 3.84688L19.134 4.85234ZM20.0789 3.90741C20.4742 3.67752 20.8999 3.5625 21.375 3.5625V1.5625C20.5532 1.5625 19.7797 1.76779 19.0734 2.17852L20.0789 3.90741ZM21.375 3.5625C21.8501 3.5625 22.2758 3.67752 22.6711 3.90741L23.6766 2.17852C22.9703 1.76779 22.1968 1.5625 21.375 1.5625V3.5625ZM22.6711 3.90741C23.072 4.14055 23.3829 4.45145 23.616 4.85234L25.3449 3.84688C24.9374 3.14621 24.3772 2.58601 23.6766 2.17852L22.6711 3.90741ZM23.616 4.85234C23.8459 5.24764 23.9609 5.67332 23.9609 6.14844H25.9609C25.9609 5.32668 25.7556 4.55314 25.3449 3.84688L23.616 4.85234ZM23.9609 6.14844C23.9609 6.62355 23.8459 7.04924 23.616 7.44454L25.3449 8.44999C25.7556 7.74373 25.9609 6.9702 25.9609 6.14844H23.9609ZM23.616 7.44454C23.3829 7.84543 23.072 8.15632 22.6711 8.38946L23.6766 10.1184C24.3772 9.71087 24.9374 9.15067 25.3449 8.44999L23.616 7.44454ZM22.6711 8.38946C22.2758 8.61935 21.8501 8.73438 21.375 8.73438V10.7344C22.1968 10.7344 22.9703 10.5291 23.6766 10.1184L22.6711 8.38946ZM21.375 8.73438C20.8999 8.73438 20.4742 8.61935 20.0789 8.38946L19.0734 10.1184C19.7797 10.5291 20.5532 10.7344 21.375 10.7344V8.73438ZM20.0789 8.38946C19.678 8.15632 19.3671 7.84543 19.134 7.44454L17.4051 8.44999C17.8126 9.15067 18.3728 9.71087 19.0734 10.1184L20.0789 8.38946ZM16.7633 4.19855C16.4994 4.8193 16.3672 5.472 16.3672 6.14844H18.3672C18.3672 5.73894 18.4459 5.35257 18.6039 4.98114L16.7633 4.19855ZM16.3672 6.14844C16.3672 6.82487 16.4994 7.47757 16.7633 8.09833L18.6039 7.31574C18.4459 6.9443 18.3672 6.55794 18.3672 6.14844H16.3672ZM16.7633 8.09833C17.0204 8.70288 17.3721 9.23843 17.8222 9.69347L19.2442 8.287C18.9833 8.02329 18.7687 7.70337 18.6039 7.31574L16.7633 8.09833ZM17.83 9.70119C18.285 10.1513 18.8206 10.5031 19.4251 10.7601L20.2077 8.91958C19.8201 8.75476 19.5001 8.54012 19.2364 8.27927L17.83 9.70119ZM19.4251 10.7601C20.0459 11.0241 20.6986 11.1562 21.375 11.1562V9.15625C20.9655 9.15625 20.5791 9.07751 20.2077 8.91958L19.4251 10.7601ZM21.375 11.1562C22.0514 11.1562 22.7041 11.0241 23.3249 10.7601L22.5423 8.91958C22.1709 9.07751 21.7845 9.15625 21.375 9.15625V11.1562ZM23.3249 10.7601C23.9303 10.5027 24.4655 10.1498 24.918 9.69734L23.5038 8.28313C23.2454 8.54157 22.929 8.75513 22.5423 8.91958L23.3249 10.7601ZM24.918 9.69734C25.3735 9.24192 25.7287 8.70513 25.9867 8.09833L24.1461 7.31574C23.9823 7.70112 23.7672 8.0198 23.5038 8.28313L24.918 9.69734ZM25.9867 8.09833C26.2506 7.47757 26.3828 6.82487 26.3828 6.14844H24.3828C24.3828 6.55794 24.3041 6.9443 24.1461 7.31574L25.9867 8.09833ZM26.3828 6.14844C26.3828 5.472 26.2506 4.8193 25.9867 4.19855L24.1461 4.98114C24.3041 5.35257 24.3828 5.73894 24.3828 6.14844H26.3828ZM25.9867 4.19855C25.7283 3.59085 25.372 3.0544 24.9142 2.60154L23.5077 4.02346C23.7686 4.28154 23.9827 4.59665 24.1461 4.98114L25.9867 4.19855ZM24.9219 2.60927C24.469 2.15143 23.9326 1.79516 23.3249 1.53677L22.5423 3.3773C22.9268 3.54078 23.2419 3.75482 23.5 4.01573L24.9219 2.60927ZM23.3249 1.53677C22.7041 1.27282 22.0514 1.14062 21.375 1.14062V3.14062C21.7845 3.14062 22.1709 3.21936 22.5423 3.3773L23.3249 1.53677ZM21.375 1.14062C20.6986 1.14062 20.0459 1.27282 19.4251 1.53677L20.2077 3.3773C20.5791 3.21936 20.9655 3.14062 21.375 3.14062V1.14062ZM19.4251 1.53677C18.8183 1.79478 18.2815 2.14997 17.8261 2.60539L19.2403 4.01961C19.5036 3.75628 19.8223 3.54116 20.2077 3.3773L19.4251 1.53677ZM17.8261 2.60539C17.3736 3.05789 17.0208 3.59311 16.7633 4.19855L18.6039 4.98114C18.7683 4.59439 18.9819 4.27805 19.2403 4.01961L17.8261 2.60539ZM18.402 7.86713C18.0977 7.34294 17.9453 6.7764 17.9453 6.14844H15.9453C15.9453 7.12204 16.1875 8.03597 16.6723 8.87116L18.402 7.86713ZM17.9453 6.14844C17.9453 5.52048 18.0977 4.95394 18.402 4.42975L16.6723 3.42572C16.1875 4.26091 15.9453 5.17483 15.9453 6.14844H17.9453ZM18.3998 4.43345C18.7112 3.90219 19.1262 3.48897 19.6563 3.18126L18.6523 1.45155C17.823 1.93291 17.1599 2.5939 16.6744 3.42201L18.3998 4.43345ZM19.66 3.1791C20.1837 2.87211 20.7489 2.71875 21.375 2.71875V0.71875C20.3995 0.71875 19.4843 0.963827 18.6486 1.45371L19.66 3.1791ZM21.375 2.71875C22.0011 2.71875 22.5663 2.87211 23.09 3.1791L24.1014 1.45371C23.2657 0.963827 22.3505 0.71875 21.375 0.71875V2.71875ZM23.0937 3.18126C23.6229 3.48847 24.035 3.90051 24.3422 4.42975L26.0719 3.42572C25.59 2.59558 24.9279 1.93341 24.0977 1.45155L23.0937 3.18126ZM24.3443 4.43345C24.6513 4.95715 24.8047 5.52237 24.8047 6.14844H26.8047C26.8047 5.17294 26.5596 4.25769 26.0697 3.42201L24.3443 4.43345ZM24.8047 6.14844C24.8047 6.7745 24.6513 7.33973 24.3443 7.86342L26.0697 8.87486C26.5596 8.03918 26.8047 7.12394 26.8047 6.14844H24.8047ZM24.3422 7.86713C24.0345 8.39723 23.6212 8.8122 23.09 9.12363L24.1014 10.849C24.9295 10.3636 25.5905 9.70043 26.0719 8.87116L24.3422 7.86713ZM23.0937 9.12147C22.5695 9.42574 22.003 9.57812 21.375 9.57812V11.5781C22.3486 11.5781 23.2625 11.336 24.0977 10.8512L23.0937 9.12147ZM21.375 9.57812C20.747 9.57812 20.1805 9.42574 19.6563 9.12147L18.6523 10.8512C19.4875 11.336 20.4014 11.5781 21.375 11.5781V9.57812ZM19.66 9.12363C19.1279 8.8117 18.7117 8.39554 18.3998 7.86342L16.6744 8.87486C17.1594 9.70211 17.8213 10.3641 18.6486 10.849L19.66 9.12363ZM15.9839 3.87656C15.6769 4.59923 15.5234 5.35929 15.5234 6.14844H17.5234C17.5234 5.62508 17.6239 5.13124 17.8247 4.65859L15.9839 3.87656ZM15.5234 6.14844C15.5234 6.93757 15.6769 7.69875 15.983 8.42402L17.8256 7.6463C17.6239 7.16844 17.5234 6.67181 17.5234 6.14844H15.5234ZM15.9861 8.43125C16.2909 9.13777 16.7059 9.76075 17.2343 10.2891L18.6485 8.87492C18.3097 8.53612 18.0334 8.12786 17.8225 7.63907L15.9861 8.43125ZM17.2343 10.2891C17.7627 10.8175 18.3857 11.2326 19.0922 11.5374L19.8844 9.70093C19.3956 9.49008 18.9873 9.21373 18.6485 8.87492L17.2343 10.2891ZM19.0994 11.5404C19.8247 11.8466 20.5859 12 21.375 12V10C20.8516 10 20.355 9.89954 19.8771 9.69784L19.0994 11.5404ZM21.375 12C22.1641 12 22.9242 11.8465 23.6469 11.5395L22.8648 9.69876C22.3922 9.89955 21.8984 10 21.375 10V12ZM23.6498 11.5383C24.3603 11.2338 24.9862 10.8186 25.5157 10.2891L24.1015 8.87492C23.7638 9.21264 23.3545 9.48889 22.8619 9.7L23.6498 11.5383ZM25.5157 10.2891C26.0453 9.75957 26.4592 9.13484 26.7602 8.42617L24.9195 7.64414C24.7127 8.13078 24.4391 8.53731 24.1015 8.87492L25.5157 10.2891ZM26.759 8.42908C27.0703 7.70269 27.2266 6.93974 27.2266 6.14844H25.2266C25.2266 6.66964 25.125 7.1645 24.9207 7.64124L26.759 8.42908ZM27.2266 6.14844C27.2266 5.35712 27.0703 4.59528 26.7581 3.87149L24.9216 4.66367C25.125 5.13519 25.2266 5.62726 25.2266 6.14844H27.2266ZM26.7611 3.87872C26.4603 3.16605 26.0464 2.5384 25.5157 2.00774L24.1015 3.42195C24.438 3.75848 24.7115 4.16598 24.9185 4.65644L26.7611 3.87872ZM25.5157 2.00774C24.985 1.47707 24.3574 1.0631 23.6447 0.762297L22.867 2.60489C23.3575 2.8119 23.765 3.08543 24.1015 3.42195L25.5157 2.00774ZM23.652 0.765383C22.9282 0.453158 22.1663 0.296875 21.375 0.296875V2.29688C21.8962 2.29688 22.3882 2.3984 22.8598 2.6018L23.652 0.765383ZM21.375 0.296875C20.5837 0.296875 19.8207 0.453141 19.0944 0.764449L19.8822 2.60274C20.3589 2.39842 20.8538 2.29688 21.375 2.29688V0.296875ZM19.0973 0.763209C18.3886 1.06428 17.7639 1.47817 17.2343 2.00774L18.6485 3.42195C18.9861 3.08433 19.3927 2.81072 19.8793 2.60398L19.0973 0.763209ZM17.2343 2.00774C16.7048 2.53721 16.2897 3.16312 15.9852 3.87366L17.8234 4.6615C18.0345 4.16891 18.3108 3.75966 18.6485 3.42195L17.2343 2.00774ZM17.4379 7.80796C17.2136 7.28042 17.1016 6.73 17.1016 6.14844H15.1016C15.1016 6.99656 15.2669 7.81333 15.5973 8.59048L17.4379 7.80796ZM17.1016 6.14844C17.1016 5.56689 17.2136 5.01919 17.437 4.49677L15.5981 3.71026C15.2669 4.48472 15.1016 5.3003 15.1016 6.14844H17.1016ZM17.4359 4.49942C17.6707 3.95484 17.9766 3.50205 18.3497 3.12898L16.9355 1.71477C16.371 2.2792 15.927 2.9475 15.5993 3.70761L17.4359 4.49942ZM18.3497 3.12898C18.7273 2.75136 19.1797 2.44632 19.7175 2.21631L18.931 0.377444C18.1719 0.702114 17.5032 1.14708 16.9355 1.71477L18.3497 3.12898ZM19.7201 2.21516C20.2466 1.98817 20.7954 1.875 21.375 1.875V-0.125C20.5249 -0.125 19.7065 0.0430828 18.9283 0.378585L19.7201 2.21516ZM21.375 1.875C21.9546 1.875 22.5006 1.98815 23.022 2.2143L23.8178 0.379454C23.0424 0.0430975 22.2251 -0.125 21.375 -0.125V1.875ZM23.0287 2.21716C23.5696 2.44713 24.0198 2.75125 24.3915 3.12604L25.8116 1.71771C25.2458 1.14719 24.575 0.701312 23.8112 0.376594L23.0287 2.21716ZM24.3974 3.13191C24.7722 3.5036 25.0763 3.95386 25.3063 4.49477L27.1468 3.71226C26.8221 2.94848 26.3763 2.27765 25.8057 1.71184L24.3974 3.13191ZM25.3091 4.50143C25.5353 5.02282 25.6484 5.56888 25.6484 6.14844H27.6484C27.6484 5.2983 27.4803 4.48109 27.144 3.7056L25.3091 4.50143ZM25.6484 6.14844C25.6484 6.728 25.5353 7.2768 25.3083 7.80331L27.1449 8.59513C27.4804 7.81695 27.6484 6.99856 27.6484 6.14844H25.6484ZM25.3071 7.80597C25.0771 8.34376 24.7721 8.79613 24.3945 9.17375L25.8087 10.588C26.3764 10.0203 26.8213 9.35156 27.146 8.59247L25.3071 7.80597ZM24.3945 9.17375C24.0225 9.54572 23.5713 9.84902 23.0287 10.0797L23.8112 11.9203C24.5732 11.5963 25.2431 11.1535 25.8087 10.588L24.3945 9.17375ZM23.022 10.0826C22.5006 10.3087 21.9546 10.4219 21.375 10.4219V12.4219C22.2251 12.4219 23.0424 12.2538 23.8178 11.9174L23.022 10.0826ZM21.375 10.4219C20.7954 10.4219 20.2466 10.3087 19.7201 10.0817L18.9283 11.9183C19.7065 12.2538 20.5249 12.4219 21.375 12.4219V10.4219ZM19.7175 10.0806C19.178 9.84982 18.7247 9.54561 18.3467 9.17082L16.9384 10.5909C17.5058 11.1536 18.1736 11.5955 18.931 11.9194L19.7175 10.0806ZM18.3526 9.17669C17.9767 8.79769 17.6699 8.34277 17.435 7.8013L15.6002 8.59714C15.9278 9.35254 16.3709 10.0187 16.9325 10.585L18.3526 9.17669Z" fill="black" mask="url(#path-1-inside-1_13_5)"/>
</svg>
