<!DOCTYPE svg PUBLIC "-//W3C//DTD SVG 1.1//EN" "http://www.w3.org/Graphics/SVG/1.1/DTD/svg11.dtd">

<!-- Uploaded to: SVG Repo, www.svgrepo.com, Transformed by: SVG Repo Mixer Tools -->
<svg fill="#000000" height="64px" width="64px" version="1.1" id="Layer_1" xmlns="http://www.w3.org/2000/svg" xmlns:xlink="http://www.w3.org/1999/xlink" viewBox="0 0 511.997 511.997" xml:space="preserve">

<g id="SVGRepo_bgCarrier" stroke-width="0"/>

<g id="SVGRepo_tracerCarrier" stroke-linecap="round" stroke-linejoin="round"/>

<g id="SVGRepo_iconCarrier"> <g> <g> <path d="M504.326,120.759c-46.316-9.895-92.906-17.517-153.514-2.293c-15.091,3.792-30.997,7.237-44.915,6.815 c-7.776-0.238-15.526-2.048-23.021-3.801l-1.332-0.312c-48.633-11.335-103.232-19.621-172.835-3.647 c-4.949,1.135-8.184,5.897-7.418,10.917l4,26.18c0.711,4.655,4.663,8.126,9.37,8.231c0.475,0.01,0.865,0.058,1.164,0.115 c1.375,33.004,7.968,55.568,20.738,70.982c13.657,16.484,34.367,24.513,63.315,24.543c0.036,0,0.071,0,0.109,0 c35.594,0,59.792-18.92,73.827-34.802c15.739-17.809,25.171-39.074,27.537-52.249c0.619-3.446,1.478-4.301,1.482-4.305 c0.141-0.092,0.83-0.4,3.745-0.478c3.02-0.079,3.131-0.081,4.851,4.823c0.296,0.844,0.582,1.654,0.879,2.403 c11.697,29.566,21.966,50.6,36.999,64.096c15.897,14.273,35.418,18.615,59.836,20.744c4.401,0.384,8.614,0.577,12.642,0.577 c24.247,0,41.786-6.975,53.395-21.169c0.295-0.361,0.561-0.734,0.844-1.1c0.517,6.299,0.789,12.629,0.789,18.969 c0,126.11-102.598,228.707-228.707,228.707S19.397,382.109,19.397,255.999S121.994,27.292,248.103,27.292 c50.53,0,98.423,16.145,138.501,46.69c4.26,3.247,10.347,2.425,13.592-1.835c3.247-4.261,2.426-10.347-1.835-13.594 c-43.485-33.14-95.444-50.658-150.259-50.658C111.299,7.894,0,119.194,0,255.999s111.299,248.105,248.103,248.105 c136.806,0,248.105-111.298,248.105-248.105c0-18.09-1.98-36.109-5.841-53.626c0.958-4.499,1.75-8.967,2.507-13.282 c1.292-7.34,2.511-14.274,4.337-20.089c0.494-1.571,0.848-2.396,1.06-2.814c0.22-0.03,0.537-0.06,0.969-0.069 c4.809-0.107,8.812-3.72,9.409-8.493l3.272-26.18C512.548,126.452,509.248,121.81,504.326,120.759z M490.25,148.439 c-7.983,3.41-10.372,11.019-11.545,14.754c-2.202,7.021-3.529,14.558-4.932,22.539c-0.641,3.645-1.276,7.229-1.975,10.714 c-0.975,1.697-1.441,3.687-1.247,5.733c-5.597,23.578-16.616,40.98-59.727,37.222c-45.575-3.974-57.61-14.838-80.484-72.652 c-0.207-0.524-0.403-1.09-0.609-1.68c-1.882-5.369-6.24-17.812-22.766-17.812c-0.3,0-0.606,0.004-0.914,0.013 c-5.517,0.149-20.168,0.543-23.793,20.745c-3.273,18.228-29.875,71.081-82.275,71.081c-0.026,0-0.058,0-0.084,0 c-44.928-0.049-62.467-21.035-64.712-77.429c-0.31-7.829-4.771-13.86-11.732-16.599l-1.61-10.537 c61.632-12.475,111.02-4.787,155.298,5.531l1.32,0.308c8.029,1.878,17.13,4.005,26.842,4.302 c16.322,0.495,33.785-3.257,50.235-7.39c52.841-13.274,94.865-7.813,136.029,0.625L490.25,148.439z"/> </g> </g> <g> <g> <path d="M394.271,324.454H201.266c-5.358,0-9.699,4.342-9.699,9.699c0,58.56,47.641,106.201,106.201,106.201 s106.201-47.641,106.201-106.201C403.969,328.796,399.628,324.454,394.271,324.454z M297.768,420.956 c-44.587,0-81.429-33.788-86.266-77.105h172.531C379.198,387.168,342.355,420.956,297.768,420.956z"/> </g> </g> <g> <g> <circle cx="416.32" cy="87.12" r="9.699"/> </g> </g> </g>

</svg>